<?xml version="1.0" encoding="UTF-8"?>
<svg width="15px" height="16px" viewBox="0 0 15 16" version="1.1" xmlns="http://www.w3.org/2000/svg" xmlns:xlink="http://www.w3.org/1999/xlink">
    <!-- Generator: Sketch 47 (45396) - http://www.bohemiancoding.com/sketch -->
    <title>invoice</title>
    <desc>Created with Sketch.</desc>
    <defs></defs>
    <g id="Page-1" stroke="none" stroke-width="1" fill="none" fill-rule="evenodd">
        <g id="lp" transform="translate(-240.000000, -528.000000)" fill-rule="nonzero" fill="#FFFFFF">
            <g id="invoice" transform="translate(240.000000, 528.000000)">
                <path d="M14.582967,0 L0.407142857,0 C0.18956044,0 0.0115384615,0.178021978 0.0115384615,0.395604396 C0.0115384615,0.613186813 0.18956044,0.791208791 0.407142857,0.791208791 L1.26098901,0.791208791 L1.26098901,15.0461538 C1.26098901,15.1912088 1.34010989,15.3263736 1.46868132,15.3956044 C1.59725275,15.4648352 1.7521978,15.4582418 1.87417582,15.3758242 L3.59175824,14.2318681 L5.31593407,15.3791209 C5.4478022,15.4681319 5.62252747,15.4681319 5.7543956,15.3791209 L7.47197802,14.2351648 L9.19615385,15.3824176 C9.32802198,15.4714286 9.50274725,15.4714286 9.63461538,15.3824176 L11.3521978,14.2384615 L13.0763736,15.3857143 C13.1423077,15.4285714 13.2181319,15.4516484 13.293956,15.4516484 C13.3565934,15.4516484 13.4225275,15.4351648 13.4818681,15.4054945 C13.6104396,15.3362637 13.6895604,15.2010989 13.6895604,15.056044 L13.682967,0.801098901 L14.582967,0.801098901 C14.8005495,0.801098901 14.9785714,0.623076923 14.9785714,0.405494505 C14.9785714,0.187912088 14.8005495,0 14.582967,0 Z M12.9016484,14.3076923 L11.5730769,13.4241758 C11.4412088,13.3351648 11.2664835,13.3351648 11.1346154,13.4241758 L9.41703297,14.5714286 L7.69285714,13.4241758 C7.56098901,13.3351648 7.38626374,13.3351648 7.2543956,13.4241758 L5.53681319,14.5681319 L3.81263736,13.4241758 C3.68076923,13.3351648 3.50604396,13.3351648 3.37417582,13.4241758 L2.0521978,14.3043956 L2.0521978,0.787912088 L12.8983516,0.787912088 L12.9016484,14.3076923 Z" id="Shape"></path>
                <path d="M3.87197802,6.31648352 L8.01593407,6.31648352 C8.23351648,6.31648352 8.41153846,6.13846154 8.41153846,5.92087912 C8.41153846,5.7032967 8.23351648,5.52527473 8.01593407,5.52527473 L3.87197802,5.52527473 C3.6543956,5.52527473 3.47637363,5.7032967 3.47637363,5.92087912 C3.47637363,6.13846154 3.6510989,6.31648352 3.87197802,6.31648352 Z" id="Shape"></path>
                <path d="M3.87197802,7.69120879 L6.97747253,7.69120879 C7.19505495,7.69120879 7.37307692,7.51318681 7.37307692,7.2956044 C7.37307692,7.07802198 7.19505495,6.9 6.97747253,6.9 L3.87197802,6.9 C3.6543956,6.9 3.47637363,7.07802198 3.47637363,7.2956044 C3.47637363,7.51318681 3.6510989,7.69120879 3.87197802,7.69120879 Z" id="Shape"></path>
                <path d="M10.0862637,6.31648352 L11.1214286,6.31648352 C11.339011,6.31648352 11.517033,6.13846154 11.517033,5.92087912 C11.517033,5.7032967 11.339011,5.52527473 11.1214286,5.52527473 L10.0862637,5.52527473 C9.86868132,5.52527473 9.69065934,5.7032967 9.69065934,5.92087912 C9.69065934,6.13846154 9.86538462,6.31648352 10.0862637,6.31648352 Z" id="Shape"></path>
                <path d="M10.0862637,7.69120879 L11.1214286,7.69120879 C11.339011,7.69120879 11.517033,7.51318681 11.517033,7.2956044 C11.517033,7.07802198 11.339011,6.9 11.1214286,6.9 L10.0862637,6.9 C9.86868132,6.9 9.69065934,7.07802198 9.69065934,7.2956044 C9.69065934,7.51318681 9.86538462,7.69120879 10.0862637,7.69120879 Z" id="Shape"></path>
                <path d="M3.87197802,3.14175824 L8.01593407,3.14175824 C8.23351648,3.14175824 8.41153846,2.96373626 8.41153846,2.74615385 C8.41153846,2.52857143 8.23351648,2.35054945 8.01593407,2.35054945 L3.87197802,2.35054945 C3.6543956,2.35054945 3.47637363,2.52857143 3.47637363,2.74615385 C3.47637363,2.96373626 3.6510989,3.14175824 3.87197802,3.14175824 Z" id="Shape"></path>
                <path d="M3.87197802,4.51318681 L6.97747253,4.51318681 C7.19505495,4.51318681 7.37307692,4.33516484 7.37307692,4.11758242 C7.37307692,3.9 7.19505495,3.72197802 6.97747253,3.72197802 L3.87197802,3.72197802 C3.6543956,3.72197802 3.47637363,3.9 3.47637363,4.11758242 C3.47637363,4.33516484 3.6510989,4.51318681 3.87197802,4.51318681 Z" id="Shape"></path>
                <path d="M10.0862637,3.14175824 L11.1214286,3.14175824 C11.339011,3.14175824 11.517033,2.96373626 11.517033,2.74615385 C11.517033,2.52857143 11.339011,2.35054945 11.1214286,2.35054945 L10.0862637,2.35054945 C9.86868132,2.35054945 9.69065934,2.52857143 9.69065934,2.74615385 C9.69065934,2.96373626 9.86538462,3.14175824 10.0862637,3.14175824 Z" id="Shape"></path>
                <path d="M10.0862637,4.51318681 L11.1214286,4.51318681 C11.339011,4.51318681 11.517033,4.33516484 11.517033,4.11758242 C11.517033,3.9 11.339011,3.72197802 11.1214286,3.72197802 L10.0862637,3.72197802 C9.86868132,3.72197802 9.69065934,3.9 9.69065934,4.11758242 C9.69065934,4.33516484 9.86538462,4.51318681 10.0862637,4.51318681 Z" id="Shape"></path>
                <path d="M3.87197802,9.53076923 L8.01593407,9.53076923 C8.23351648,9.53076923 8.41153846,9.35274725 8.41153846,9.13516484 C8.41153846,8.91758242 8.23351648,8.73956044 8.01593407,8.73956044 L3.87197802,8.73956044 C3.6543956,8.73956044 3.47637363,8.91758242 3.47637363,9.13516484 C3.47637363,9.35274725 3.6510989,9.53076923 3.87197802,9.53076923 Z" id="Shape"></path>
                <path d="M3.87197802,10.9021978 L6.97747253,10.9021978 C7.19505495,10.9021978 7.37307692,10.7241758 7.37307692,10.5065934 C7.37307692,10.289011 7.19505495,10.110989 6.97747253,10.110989 L3.87197802,10.110989 C3.6543956,10.110989 3.47637363,10.289011 3.47637363,10.5065934 C3.47637363,10.7241758 3.6510989,10.9021978 3.87197802,10.9021978 Z" id="Shape"></path>
                <path d="M10.0862637,9.53076923 L11.1214286,9.53076923 C11.339011,9.53076923 11.517033,9.35274725 11.517033,9.13516484 C11.517033,8.91758242 11.339011,8.73956044 11.1214286,8.73956044 L10.0862637,8.73956044 C9.86868132,8.73956044 9.69065934,8.91758242 9.69065934,9.13516484 C9.69065934,9.35274725 9.86538462,9.53076923 10.0862637,9.53076923 Z" id="Shape"></path>
                <path d="M10.0862637,10.9021978 L11.1214286,10.9021978 C11.339011,10.9021978 11.517033,10.7241758 11.517033,10.5065934 C11.517033,10.289011 11.339011,10.110989 11.1214286,10.110989 L10.0862637,10.110989 C9.86868132,10.110989 9.69065934,10.289011 9.69065934,10.5065934 C9.69065934,10.7241758 9.86538462,10.9021978 10.0862637,10.9021978 Z" id="Shape"></path>
            </g>
        </g>
    </g>
</svg>