<?xml version="1.0" encoding="UTF-8"?>
<svg width="18px" height="18px" viewBox="0 0 18 18" version="1.1" xmlns="http://www.w3.org/2000/svg" xmlns:xlink="http://www.w3.org/1999/xlink">
    <!-- Generator: Sketch 47 (45396) - http://www.bohemiancoding.com/sketch -->
    <title>small-calendar</title>
    <desc>Created with Sketch.</desc>
    <defs></defs>
    <g id="Page-1" stroke="none" stroke-width="1" fill="none" fill-rule="evenodd">
        <g id="lp" transform="translate(-240.000000, -342.000000)" fill-rule="nonzero" fill="#FFFFFF">
            <g id="small-calendar" transform="translate(240.000000, 342.000000)">
                <path d="M16.500375,1.6875 L14.0625,1.6875 L14.0625,0.5625 C14.0625,0.2514375 13.8110625,0 13.5,0 C13.1889375,0 12.9375,0.2514375 12.9375,0.5625 L12.9375,1.6875 L9.5625,1.6875 L9.5625,0.5625 C9.5625,0.2514375 9.3105,0 9,0 C8.6895,0 8.4375,0.2514375 8.4375,0.5625 L8.4375,1.6875 L5.0625,1.6875 L5.0625,0.5625 C5.0625,0.2514375 4.8105,0 4.5,0 C4.1895,0 3.9375,0.2514375 3.9375,0.5625 L3.9375,1.6875 L1.5001875,1.6875 C0.671625,1.6875 0,2.3585625 0,3.187125 L0,16.4998125 C0,17.328375 0.671625,18 1.5001875,18 L16.500375,18 C17.3289375,18 18,17.328375 18,16.4998125 L18,3.187125 C18,2.3585625 17.3289375,1.6875 16.500375,1.6875 Z M16.875,16.4998125 C16.875,16.7068125 16.7068125,16.875 16.500375,16.875 L1.5001875,16.875 C1.2931875,16.875 1.125,16.7068125 1.125,16.4998125 L1.125,3.187125 C1.125,2.9806875 1.2931875,2.8125 1.5001875,2.8125 L3.9375,2.8125 L3.9375,3.9375 C3.9375,4.2485625 4.1895,4.5 4.5,4.5 C4.8105,4.5 5.0625,4.2485625 5.0625,3.9375 L5.0625,2.8125 L8.4375,2.8125 L8.4375,3.9375 C8.4375,4.2485625 8.6895,4.5 9,4.5 C9.3105,4.5 9.5625,4.2485625 9.5625,3.9375 L9.5625,2.8125 L12.9375,2.8125 L12.9375,3.9375 C12.9375,4.2485625 13.1889375,4.5 13.5,4.5 C13.8110625,4.5 14.0625,4.2485625 14.0625,3.9375 L14.0625,2.8125 L16.500375,2.8125 C16.7068125,2.8125 16.875,2.9806875 16.875,3.187125 L16.875,16.4998125 Z" id="Shape"></path>
                <rect id="Rectangle-path" x="3.9375" y="6.75" width="2.25" height="1.6875"></rect>
                <rect id="Rectangle-path" x="3.9375" y="9.5625" width="2.25" height="1.6875"></rect>
                <rect id="Rectangle-path" x="3.9375" y="12.375" width="2.25" height="1.6875"></rect>
                <rect id="Rectangle-path" x="7.875" y="12.375" width="2.25" height="1.6875"></rect>
                <rect id="Rectangle-path" x="7.875" y="9.5625" width="2.25" height="1.6875"></rect>
                <rect id="Rectangle-path" x="7.875" y="6.75" width="2.25" height="1.6875"></rect>
                <rect id="Rectangle-path" x="11.8125" y="12.375" width="2.25" height="1.6875"></rect>
                <rect id="Rectangle-path" x="11.8125" y="9.5625" width="2.25" height="1.6875"></rect>
                <rect id="Rectangle-path" x="11.8125" y="6.75" width="2.25" height="1.6875"></rect>
            </g>
        </g>
    </g>
</svg>