<?xml version="1.0" encoding="UTF-8"?>
<svg width="15px" height="20px" viewBox="0 0 15 20" version="1.1" xmlns="http://www.w3.org/2000/svg" xmlns:xlink="http://www.w3.org/1999/xlink">
    <!-- Generator: Sketch 47 (45396) - http://www.bohemiancoding.com/sketch -->
    <title>user</title>
    <desc>Created with Sketch.</desc>
    <defs></defs>
    <g id="Page-1" stroke="none" stroke-width="1" fill="none" fill-rule="evenodd">
        <g id="lp" transform="translate(-239.000000, -429.000000)" fill-rule="nonzero" fill="#FFFFFF">
            <g id="user" transform="translate(239.000000, 429.000000)">
                <path d="M13.3741304,13.9855435 L10.2590217,12.4281522 C9.96521739,12.281087 9.7826087,11.9856522 9.7826087,11.6569565 L9.7826087,10.5544565 C9.85728261,10.4631522 9.93586957,10.3591304 10.0170652,10.2443478 C10.421087,9.67369565 10.7448913,9.03847826 10.9803261,8.35336957 C11.4404348,8.1423913 11.7391304,7.6875 11.7391304,7.17391304 L11.7391304,5.86956522 C11.7391304,5.55554348 11.6217391,5.25130435 11.4130435,5.01358696 L11.4130435,3.27913043 C11.4313043,3.09978261 11.5030435,2.03217391 10.7308696,1.15141304 C10.061087,0.387391304 8.97423913,0 7.5,0 C6.02576087,0 4.93891304,0.387391304 4.26913043,1.15108696 C3.49695652,2.03184783 3.56869565,3.09978261 3.58695652,3.27913043 L3.58695652,5.01358696 C3.37826087,5.25130435 3.26086957,5.55554348 3.26086957,5.86956522 L3.26086957,7.17391304 C3.26086957,7.57076087 3.44119565,7.94086957 3.74902174,8.18771739 C4.04771739,9.37043478 4.67282609,10.2616304 4.89130435,10.5476087 L4.89130435,11.6266304 C4.89130435,11.9422826 4.71913043,12.2318478 4.44228261,12.3831522 L1.53326087,13.9698913 C0.587282609,14.486087 0,15.4754348 0,16.5528261 L0,17.6086957 C0,19.1563043 4.90597826,19.5652174 7.5,19.5652174 C10.0940217,19.5652174 15,19.1563043 15,17.6086957 L15,16.616413 C15,15.4953261 14.3768478,14.4870652 13.3741304,13.9855435 Z M14.3478261,17.6086957 C14.3478261,18.0511957 11.9308696,18.9130435 7.5,18.9130435 C3.06913043,18.9130435 0.652173913,18.0511957 0.652173913,17.6086957 L0.652173913,16.5528261 C0.652173913,15.7144565 1.10934783,14.943913 1.84532609,14.5428261 L4.75434783,12.956087 C5.24119565,12.6903261 5.54347826,12.1806522 5.54347826,11.6266304 L5.54347826,10.316087 L5.4675,10.2254348 C5.45967391,10.2159783 4.66043478,9.24913043 4.35554348,7.92163043 L4.32586957,7.7925 L4.21467391,7.72076087 C4.02586957,7.59880435 3.91304348,7.39434783 3.91304348,7.17391304 L3.91304348,5.86956522 C3.91304348,5.68663043 3.99065217,5.51608696 4.13152174,5.38858696 L4.23913043,5.29173913 L4.23913043,3.26086957 L4.23619565,3.21815217 C4.23521739,3.20934783 4.12434783,2.30543478 4.75956522,1.58086957 C5.2998913,0.964565217 6.22206522,0.652173913 7.5,0.652173913 C8.77336957,0.652173913 9.69358696,0.962282609 10.2345652,1.57434783 C10.8694565,2.29206522 10.7644565,3.21032609 10.7638043,3.21815217 L10.7608696,5.29173913 L10.8684783,5.38891304 C11.0093478,5.51608696 11.0869565,5.68663043 11.0869565,5.86956522 L11.0869565,7.17391304 C11.0869565,7.45858696 10.9004348,7.70771739 10.6232609,7.79315217 L10.4608696,7.84304348 L10.4086957,8.00445652 C10.1905435,8.68304348 9.87978261,9.30978261 9.48456522,9.8673913 C9.38771739,10.0046739 9.29347826,10.1263043 9.21163043,10.2192391 L9.13043478,10.3118478 L9.13043478,11.6569565 C9.13043478,12.2341304 9.45097826,12.7529348 9.96717391,13.0111957 L13.0822826,14.568587 C13.8629348,14.958913 14.3478261,15.7434783 14.3478261,16.616413 L14.3478261,17.6086957 Z" id="Shape"></path>
            </g>
        </g>
    </g>
</svg>