<?xml version="1.0" encoding="UTF-8"?>
<svg width="18px" height="18px" viewBox="0 0 18 18" version="1.1" xmlns="http://www.w3.org/2000/svg" xmlns:xlink="http://www.w3.org/1999/xlink">
    <!-- Generator: Sketch 47 (45396) - http://www.bohemiancoding.com/sketch -->
    <title>wallet</title>
    <desc>Created with Sketch.</desc>
    <defs></defs>
    <g id="Page-1" stroke="none" stroke-width="1" fill="none" fill-rule="evenodd">
        <g id="lp" transform="translate(-240.000000, -251.000000)" fill-rule="nonzero" fill="#FFFFFF">
            <g id="wallet" transform="translate(240.000000, 251.000000)">
                <path d="M17.6179592,7.77306122 L17.1587755,7.77306122 L17.1587755,4.67265306 C17.1587755,3.94530612 16.5857143,3.3722449 15.895102,3.3722449 L15.5497959,3.3722449 L15.5497959,1.30040816 C15.5497959,0.573061224 15.0134694,-2.84217094e-14 14.3632653,-2.84217094e-14 C14.3632653,-2.84217094e-14 14.3265306,-2.84217094e-14 14.2861224,-2.84217094e-14 L1.18653061,3.36857143 C1.18285714,3.36857143 1.1755102,3.3722449 1.17183673,3.3722449 C0.525306122,3.42367347 0,3.97836735 0,4.67265306 L0,16.6995918 C0,17.4269388 0.573061224,18 1.26367347,18 L15.895102,18 C16.622449,18 17.1955102,17.4269388 17.1955102,16.6995918 L17.1955102,13.5183673 L17.6179592,13.5183673 C17.8493878,13.5183673 18,13.3640816 18,13.1363265 L18,8.15877551 C18,7.92734694 17.8089796,7.77306122 17.6179592,7.77306122 Z M14.4367347,0.727346939 C14.6277551,0.77741648 14.8187755,1.09285459 14.8187755,1.50843178 L14.8187755,4.32734694 L4.25020408,4.32734694 L14.4367347,0.727346939 Z M16.4314286,16.6995918 C16.4314286,17.0044898 16.2,17.2726531 15.895102,17.2726531 L1.26367347,17.2726531 C0.95877551,17.2726531 0.727346939,17.0044898 0.727346939,16.6995918 L0.727346939,4.67265306 C0.727346939,4.3677551 0.95877551,4.09959184 1.26367347,4.09959184 L15.8546939,4.09959184 C16.1595918,4.09959184 16.3910204,4.3677551 16.3910204,4.67265306 L16.3910204,7.77306122 L12.6,7.77306122 C10.9910204,7.77306122 9.72734694,9.03673469 9.72734694,10.6457143 C9.72734694,12.2546939 11.0277551,13.5183673 12.6,13.5183673 L16.4314286,13.5183673 L16.4314286,16.6995918 Z M17.2322449,12.7910204 L12.6,12.7910204 C11.4502041,12.7910204 10.495102,11.8322449 10.495102,10.6861224 C10.495102,9.54 11.4538776,8.58122449 12.6,8.58122449 L17.2322449,8.58122449 L17.2322449,12.7910204 Z" id="Shape"></path>
                <path d="M12.177551,12.1408163 C12.177551,13.2312009 12.7974186,13.9408163 13.4172861,13.9408163 L14.5378159,13.9408163 C15.1576835,13.9408163 15.777551,13.2138932 15.777551,12.1408163 C15.777551,11.0504317 15.1576835,10.3408163 14.5378159,10.3408163 L13.4292066,10.3408163 C12.6782133,10.3408163 12.177551,11.0677394 12.177551,12.1408163 L12.177551,12.1408163 Z" id="Shape"></path>
            </g>
        </g>
    </g>
</svg>